<svg width="1920" height="668" viewBox="0 0 1920 668" fill="none" xmlns="http://www.w3.org/2000/svg">
<g clip-path="url(#clip0_62_3)">
<rect width="1920" height="668" fill="#121010"/>
<line x1="23.5" y1="-1" x2="23.5" y2="1079" stroke="#00FF57" stroke-width="3"/>
<line x1="80.5" y1="-1" x2="80.5" y2="1079" stroke="#00FF57" stroke-width="3"/>
<path d="M59.22 155.2C59.62 155.9 59.91 156.65 60.09 157.45C60.29 158.23 60.39 159.07 60.39 159.97C60.39 161.07 60.2 162.09 59.82 163.03C59.42 163.95 58.83 164.75 58.05 165.43C57.25 166.11 56.24 166.65 55.02 167.05C53.8 167.43 52.36 167.62 50.7 167.62C49.12 167.62 47.73 167.42 46.53 167.02C45.33 166.6 44.32 166.04 43.5 165.34C42.68 164.64 42.06 163.82 41.64 162.88C41.22 161.94 41.01 160.94 41.01 159.88C41.01 159.14 41.11 158.39 41.31 157.63C41.51 156.85 41.84 156.09 42.3 155.35L44.34 156.07C43.58 157.39 43.2 158.63 43.2 159.79C43.2 160.61 43.38 161.35 43.74 162.01C44.08 162.65 44.58 163.2 45.24 163.66C45.9 164.12 46.69 164.48 47.61 164.74C48.53 164.98 49.56 165.1 50.7 165.1C51.98 165.1 53.09 164.97 54.03 164.71C54.97 164.43 55.75 164.05 56.37 163.57C56.99 163.09 57.45 162.52 57.75 161.86C58.05 161.18 58.2 160.45 58.2 159.67C58.2 159.09 58.13 158.48 57.99 157.84C57.83 157.2 57.56 156.54 57.18 155.86L59.22 155.2ZM53.04 140.2C54.14 140.2 55.14 140.36 56.04 140.68C56.92 140.98 57.68 141.41 58.32 141.97C58.96 142.53 59.46 143.2 59.82 143.98C60.16 144.76 60.33 145.61 60.33 146.53C60.33 147.43 60.16 148.27 59.82 149.05C59.46 149.81 58.96 150.47 58.32 151.03C57.68 151.59 56.92 152.03 56.04 152.35C55.14 152.65 54.14 152.8 53.04 152.8C51.94 152.8 50.94 152.65 50.04 152.35C49.14 152.03 48.38 151.59 47.76 151.03C47.12 150.47 46.63 149.81 46.29 149.05C45.93 148.27 45.75 147.43 45.75 146.53C45.75 145.61 45.93 144.76 46.29 143.98C46.63 143.2 47.12 142.53 47.76 141.97C48.38 141.41 49.14 140.98 50.04 140.68C50.94 140.36 51.94 140.2 53.04 140.2ZM53.04 142.75C51.46 142.75 50.22 143.09 49.32 143.77C48.4 144.45 47.94 145.37 47.94 146.53C47.94 147.67 48.4 148.58 49.32 149.26C50.22 149.92 51.46 150.25 53.04 150.25C54.6 150.25 55.84 149.92 56.76 149.26C57.66 148.58 58.11 147.67 58.11 146.53C58.11 145.37 57.66 144.45 56.76 143.77C55.84 143.09 54.6 142.75 53.04 142.75ZM46.47 136.87C46.25 135.97 46.08 135.08 45.96 134.2C45.84 133.3 45.78 132.46 45.78 131.68C45.78 129.82 46.26 128.42 47.22 127.48C48.18 126.52 49.72 126.04 51.84 126.04H60V128.5H52.29C51.39 128.5 50.66 128.58 50.1 128.74C49.54 128.9 49.11 129.13 48.81 129.43C48.49 129.71 48.27 130.06 48.15 130.48C48.03 130.88 47.97 131.32 47.97 131.8C47.97 132.2 48 132.63 48.06 133.09C48.1 133.53 48.16 133.96 48.24 134.38H60V136.87H46.47ZM46.08 116.71V110.83H48.15V116.71H54.63C55.33 116.71 55.9 116.66 56.34 116.56C56.78 116.46 57.14 116.3 57.42 116.08C57.68 115.84 57.86 115.54 57.96 115.18C58.06 114.82 58.11 114.38 58.11 113.86C58.11 113.14 58.05 112.56 57.93 112.12C57.81 111.68 57.65 111.26 57.45 110.86L59.55 110.5C59.67 110.78 59.83 111.23 60.03 111.85C60.23 112.45 60.33 113.2 60.33 114.1C60.33 115.14 60.21 115.99 59.97 116.65C59.73 117.31 59.37 117.83 58.89 118.21C58.41 118.57 57.82 118.82 57.12 118.96C56.4 119.1 55.57 119.17 54.63 119.17H48.15V122.11H46.08V119.17H42.18L41.76 116.71H46.08ZM58.23 101.35C58.23 100.73 58.21 100.18 58.17 99.7C58.13 99.2 58.08 98.79 58.02 98.47H53.88C53.78 98.79 53.7 99.18 53.64 99.64C53.58 100.08 53.55 100.55 53.55 101.05C53.55 101.51 53.59 101.96 53.67 102.4C53.73 102.84 53.85 103.23 54.03 103.57C54.21 103.91 54.45 104.19 54.75 104.41C55.03 104.63 55.39 104.74 55.83 104.74C56.73 104.74 57.36 104.44 57.72 103.84C58.06 103.22 58.23 102.39 58.23 101.35ZM45.75 101.59C45.75 100.55 45.88 99.68 46.14 98.98C46.4 98.26 46.76 97.68 47.22 97.24C47.68 96.8 48.24 96.49 48.9 96.31C49.56 96.13 50.28 96.04 51.06 96.04H59.76C59.86 96.62 59.98 97.39 60.12 98.35C60.26 99.29 60.33 100.26 60.33 101.26C60.33 102.02 60.26 102.76 60.12 103.48C60 104.2 59.78 104.84 59.46 105.4C59.12 105.96 58.66 106.41 58.08 106.75C57.5 107.09 56.76 107.26 55.86 107.26C55.06 107.26 54.39 107.09 53.85 106.75C53.29 106.39 52.84 105.94 52.5 105.4C52.16 104.84 51.92 104.21 51.78 103.51C51.62 102.79 51.54 102.07 51.54 101.35C51.54 100.37 51.65 99.41 51.87 98.47H51.18C50.76 98.47 50.36 98.52 49.98 98.62C49.58 98.7 49.22 98.87 48.9 99.13C48.58 99.37 48.33 99.71 48.15 100.15C47.95 100.57 47.85 101.12 47.85 101.8C47.85 102.66 47.91 103.41 48.03 104.05C48.15 104.69 48.27 105.18 48.39 105.52L46.35 105.82C46.19 105.48 46.05 104.92 45.93 104.14C45.81 103.34 45.75 102.49 45.75 101.59ZM53.07 92.53C51.81 92.53 50.72 92.33 49.8 91.93C48.88 91.53 48.12 90.98 47.52 90.28C46.92 89.58 46.48 88.77 46.2 87.85C45.9 86.91 45.75 85.91 45.75 84.85C45.75 84.17 45.8 83.5 45.9 82.84C45.98 82.16 46.14 81.44 46.38 80.68L48.51 81.25C48.27 81.91 48.12 82.52 48.06 83.08C47.98 83.62 47.94 84.17 47.94 84.73C47.94 85.45 48.04 86.13 48.24 86.77C48.42 87.41 48.72 87.97 49.14 88.45C49.54 88.91 50.07 89.28 50.73 89.56C51.37 89.84 52.15 89.98 53.07 89.98C53.95 89.98 54.71 89.85 55.35 89.59C55.97 89.33 56.49 88.97 56.91 88.51C57.31 88.03 57.61 87.46 57.81 86.8C58.01 86.14 58.11 85.41 58.11 84.61C58.11 83.97 58.08 83.36 58.02 82.78C57.94 82.18 57.78 81.53 57.54 80.83L59.61 80.47C59.87 81.17 60.05 81.88 60.15 82.6C60.27 83.32 60.33 84.1 60.33 84.94C60.33 86.06 60.18 87.09 59.88 88.03C59.56 88.95 59.1 89.75 58.5 90.43C57.9 91.09 57.15 91.61 56.25 91.99C55.33 92.35 54.27 92.53 53.07 92.53ZM46.08 71.71V65.83H48.15V71.71H54.63C55.33 71.71 55.9 71.66 56.34 71.56C56.78 71.46 57.14 71.3 57.42 71.08C57.68 70.84 57.86 70.54 57.96 70.18C58.06 69.82 58.11 69.38 58.11 68.86C58.11 68.14 58.05 67.56 57.93 67.12C57.81 66.68 57.65 66.26 57.45 65.86L59.55 65.5C59.67 65.78 59.83 66.23 60.03 66.85C60.23 67.45 60.33 68.2 60.33 69.1C60.33 70.14 60.21 70.99 59.97 71.65C59.73 72.31 59.37 72.83 58.89 73.21C58.41 73.57 57.82 73.82 57.12 73.96C56.4 74.1 55.57 74.17 54.63 74.17H48.15V77.11H46.08V74.17H42.18L41.76 71.71H46.08ZM56.52 53.47C56.02 53.47 55.61 53.68 55.29 54.1C54.97 54.5 54.69 55.01 54.45 55.63C54.21 56.23 53.98 56.89 53.76 57.61C53.52 58.33 53.23 59 52.89 59.62C52.55 60.22 52.13 60.73 51.63 61.15C51.13 61.55 50.48 61.75 49.68 61.75C48.56 61.75 47.63 61.3 46.89 60.4C46.13 59.48 45.75 58.05 45.75 56.11C45.75 55.35 45.81 54.57 45.93 53.77C46.03 52.95 46.17 52.25 46.35 51.67L48.57 52.12C48.49 52.28 48.41 52.5 48.33 52.78C48.23 53.06 48.15 53.38 48.09 53.74C48.01 54.1 47.95 54.49 47.91 54.91C47.87 55.31 47.85 55.7 47.85 56.08C47.85 58.24 48.44 59.32 49.62 59.32C50.04 59.32 50.4 59.12 50.7 58.72C50.98 58.3 51.24 57.78 51.48 57.16C51.72 56.54 51.97 55.87 52.23 55.15C52.47 54.43 52.77 53.76 53.13 53.14C53.49 52.52 53.93 52.01 54.45 51.61C54.95 51.19 55.59 50.98 56.37 50.98C57.63 50.98 58.61 51.47 59.31 52.45C59.99 53.43 60.33 54.98 60.33 57.1C60.33 58.06 60.25 58.94 60.09 59.74C59.93 60.54 59.69 61.3 59.37 62.02L57.12 61.54C57.44 60.84 57.71 60.11 57.93 59.35C58.13 58.57 58.23 57.74 58.23 56.86C58.23 54.6 57.66 53.47 56.52 53.47Z" fill="#3CAC69"/>
<line x1="-26" y1="590.5" x2="1894" y2="590.5" stroke="#5DF499" stroke-width="3"/>
<line x1="-26" y1="644.5" x2="1894" y2="644.5" stroke="#5DF499" stroke-width="3"/>
</g>
<defs>
<clipPath id="clip0_62_3">
<rect width="1920" height="668" fill="white"/>
</clipPath>
</defs>
</svg>
