<svg width="1920" height="668" viewBox="0 0 1920 668" fill="none" xmlns="http://www.w3.org/2000/svg">
<g clip-path="url(#clip0_62_3)">
<rect width="1920" height="668" fill="#121010"/>
<line x1="48.5" x2="48.5" y2="1080" stroke="#00FF57" stroke-width="3"/>
<line x1="105.5" x2="105.5" y2="1080" stroke="#00FF57" stroke-width="3"/>
<path d="M84.22 156.2C84.62 156.9 84.91 157.65 85.09 158.45C85.29 159.23 85.39 160.07 85.39 160.97C85.39 162.07 85.2 163.09 84.82 164.03C84.42 164.95 83.83 165.75 83.05 166.43C82.25 167.11 81.24 167.65 80.02 168.05C78.8 168.43 77.36 168.62 75.7 168.62C74.12 168.62 72.73 168.42 71.53 168.02C70.33 167.6 69.32 167.04 68.5 166.34C67.68 165.64 67.06 164.82 66.64 163.88C66.22 162.94 66.01 161.94 66.01 160.88C66.01 160.14 66.11 159.39 66.31 158.63C66.51 157.85 66.84 157.09 67.3 156.35L69.34 157.07C68.58 158.39 68.2 159.63 68.2 160.79C68.2 161.61 68.38 162.35 68.74 163.01C69.08 163.65 69.58 164.2 70.24 164.66C70.9 165.12 71.69 165.48 72.61 165.74C73.53 165.98 74.56 166.1 75.7 166.1C76.98 166.1 78.09 165.97 79.03 165.71C79.97 165.43 80.75 165.05 81.37 164.57C81.99 164.09 82.45 163.52 82.75 162.86C83.05 162.18 83.2 161.45 83.2 160.67C83.2 160.09 83.13 159.48 82.99 158.84C82.83 158.2 82.56 157.54 82.18 156.86L84.22 156.2ZM78.04 141.2C79.14 141.2 80.14 141.36 81.04 141.68C81.92 141.98 82.68 142.41 83.32 142.97C83.96 143.53 84.46 144.2 84.82 144.98C85.16 145.76 85.33 146.61 85.33 147.53C85.33 148.43 85.16 149.27 84.82 150.05C84.46 150.81 83.96 151.47 83.32 152.03C82.68 152.59 81.92 153.03 81.04 153.35C80.14 153.65 79.14 153.8 78.04 153.8C76.94 153.8 75.94 153.65 75.04 153.35C74.14 153.03 73.38 152.59 72.76 152.03C72.12 151.47 71.63 150.81 71.29 150.05C70.93 149.27 70.75 148.43 70.75 147.53C70.75 146.61 70.93 145.76 71.29 144.98C71.63 144.2 72.12 143.53 72.76 142.97C73.38 142.41 74.14 141.98 75.04 141.68C75.94 141.36 76.94 141.2 78.04 141.2ZM78.04 143.75C76.46 143.75 75.22 144.09 74.32 144.77C73.4 145.45 72.94 146.37 72.94 147.53C72.94 148.67 73.4 149.58 74.32 150.26C75.22 150.92 76.46 151.25 78.04 151.25C79.6 151.25 80.84 150.92 81.76 150.26C82.66 149.58 83.11 148.67 83.11 147.53C83.11 146.37 82.66 145.45 81.76 144.77C80.84 144.09 79.6 143.75 78.04 143.75ZM71.47 137.87C71.25 136.97 71.08 136.08 70.96 135.2C70.84 134.3 70.78 133.46 70.78 132.68C70.78 130.82 71.26 129.42 72.22 128.48C73.18 127.52 74.72 127.04 76.84 127.04H85V129.5H77.29C76.39 129.5 75.66 129.58 75.1 129.74C74.54 129.9 74.11 130.13 73.81 130.43C73.49 130.71 73.27 131.06 73.15 131.48C73.03 131.88 72.97 132.32 72.97 132.8C72.97 133.2 73 133.63 73.06 134.09C73.1 134.53 73.16 134.96 73.24 135.38H85V137.87H71.47ZM71.08 117.71V111.83H73.15V117.71H79.63C80.33 117.71 80.9 117.66 81.34 117.56C81.78 117.46 82.14 117.3 82.42 117.08C82.68 116.84 82.86 116.54 82.96 116.18C83.06 115.82 83.11 115.38 83.11 114.86C83.11 114.14 83.05 113.56 82.93 113.12C82.81 112.68 82.65 112.26 82.45 111.86L84.55 111.5C84.67 111.78 84.83 112.23 85.03 112.85C85.23 113.45 85.33 114.2 85.33 115.1C85.33 116.14 85.21 116.99 84.97 117.65C84.73 118.31 84.37 118.83 83.89 119.21C83.41 119.57 82.82 119.82 82.12 119.96C81.4 120.1 80.57 120.17 79.63 120.17H73.15V123.11H71.08V120.17H67.18L66.76 117.71H71.08ZM83.23 102.35C83.23 101.73 83.21 101.18 83.17 100.7C83.13 100.2 83.08 99.79 83.02 99.47H78.88C78.78 99.79 78.7 100.18 78.64 100.64C78.58 101.08 78.55 101.55 78.55 102.05C78.55 102.51 78.59 102.96 78.67 103.4C78.73 103.84 78.85 104.23 79.03 104.57C79.21 104.91 79.45 105.19 79.75 105.41C80.03 105.63 80.39 105.74 80.83 105.74C81.73 105.74 82.36 105.44 82.72 104.84C83.06 104.22 83.23 103.39 83.23 102.35ZM70.75 102.59C70.75 101.55 70.88 100.68 71.14 99.98C71.4 99.26 71.76 98.68 72.22 98.24C72.68 97.8 73.24 97.49 73.9 97.31C74.56 97.13 75.28 97.04 76.06 97.04H84.76C84.86 97.62 84.98 98.39 85.12 99.35C85.26 100.29 85.33 101.26 85.33 102.26C85.33 103.02 85.26 103.76 85.12 104.48C85 105.2 84.78 105.84 84.46 106.4C84.12 106.96 83.66 107.41 83.08 107.75C82.5 108.09 81.76 108.26 80.86 108.26C80.06 108.26 79.39 108.09 78.85 107.75C78.29 107.39 77.84 106.94 77.5 106.4C77.16 105.84 76.92 105.21 76.78 104.51C76.62 103.79 76.54 103.07 76.54 102.35C76.54 101.37 76.65 100.41 76.87 99.47H76.18C75.76 99.47 75.36 99.52 74.98 99.62C74.58 99.7 74.22 99.87 73.9 100.13C73.58 100.37 73.33 100.71 73.15 101.15C72.95 101.57 72.85 102.12 72.85 102.8C72.85 103.66 72.91 104.41 73.03 105.05C73.15 105.69 73.27 106.18 73.39 106.52L71.35 106.82C71.19 106.48 71.05 105.92 70.93 105.14C70.81 104.34 70.75 103.49 70.75 102.59ZM78.07 93.53C76.81 93.53 75.72 93.33 74.8 92.93C73.88 92.53 73.12 91.98 72.52 91.28C71.92 90.58 71.48 89.77 71.2 88.85C70.9 87.91 70.75 86.91 70.75 85.85C70.75 85.17 70.8 84.5 70.9 83.84C70.98 83.16 71.14 82.44 71.38 81.68L73.51 82.25C73.27 82.91 73.12 83.52 73.06 84.08C72.98 84.62 72.94 85.17 72.94 85.73C72.94 86.45 73.04 87.13 73.24 87.77C73.42 88.41 73.72 88.97 74.14 89.45C74.54 89.91 75.07 90.28 75.73 90.56C76.37 90.84 77.15 90.98 78.07 90.98C78.95 90.98 79.71 90.85 80.35 90.59C80.97 90.33 81.49 89.97 81.91 89.51C82.31 89.03 82.61 88.46 82.81 87.8C83.01 87.14 83.11 86.41 83.11 85.61C83.11 84.97 83.08 84.36 83.02 83.78C82.94 83.18 82.78 82.53 82.54 81.83L84.61 81.47C84.87 82.17 85.05 82.88 85.15 83.6C85.27 84.32 85.33 85.1 85.33 85.94C85.33 87.06 85.18 88.09 84.88 89.03C84.56 89.95 84.1 90.75 83.5 91.43C82.9 92.09 82.15 92.61 81.25 92.99C80.33 93.35 79.27 93.53 78.07 93.53ZM71.08 72.71V66.83H73.15V72.71H79.63C80.33 72.71 80.9 72.66 81.34 72.56C81.78 72.46 82.14 72.3 82.42 72.08C82.68 71.84 82.86 71.54 82.96 71.18C83.06 70.82 83.11 70.38 83.11 69.86C83.11 69.14 83.05 68.56 82.93 68.12C82.81 67.68 82.65 67.26 82.45 66.86L84.55 66.5C84.67 66.78 84.83 67.23 85.03 67.85C85.23 68.45 85.33 69.2 85.33 70.1C85.33 71.14 85.21 71.99 84.97 72.65C84.73 73.31 84.37 73.83 83.89 74.21C83.41 74.57 82.82 74.82 82.12 74.96C81.4 75.1 80.57 75.17 79.63 75.17H73.15V78.11H71.08V75.17H67.18L66.76 72.71H71.08ZM81.52 54.47C81.02 54.47 80.61 54.68 80.29 55.1C79.97 55.5 79.69 56.01 79.45 56.63C79.21 57.23 78.98 57.89 78.76 58.61C78.52 59.33 78.23 60 77.89 60.62C77.55 61.22 77.13 61.73 76.63 62.15C76.13 62.55 75.48 62.75 74.68 62.75C73.56 62.75 72.63 62.3 71.89 61.4C71.13 60.48 70.75 59.05 70.75 57.11C70.75 56.35 70.81 55.57 70.93 54.77C71.03 53.95 71.17 53.25 71.35 52.67L73.57 53.12C73.49 53.28 73.41 53.5 73.33 53.78C73.23 54.06 73.15 54.38 73.09 54.74C73.01 55.1 72.95 55.49 72.91 55.91C72.87 56.31 72.85 56.7 72.85 57.08C72.85 59.24 73.44 60.32 74.62 60.32C75.04 60.32 75.4 60.12 75.7 59.72C75.98 59.3 76.24 58.78 76.48 58.16C76.72 57.54 76.97 56.87 77.23 56.15C77.47 55.43 77.77 54.76 78.13 54.14C78.49 53.52 78.93 53.01 79.45 52.61C79.95 52.19 80.59 51.98 81.37 51.98C82.63 51.98 83.61 52.47 84.31 53.45C84.99 54.43 85.33 55.98 85.33 58.1C85.33 59.06 85.25 59.94 85.09 60.74C84.93 61.54 84.69 62.3 84.37 63.02L82.12 62.54C82.44 61.84 82.71 61.11 82.93 60.35C83.13 59.57 83.23 58.74 83.23 57.86C83.23 55.6 82.66 54.47 81.52 54.47Z" fill="#3CAC69"/>
<line x1="-26" y1="566.5" x2="1894" y2="566.5" stroke="#5DF499" stroke-width="3"/>
<line x1="-26" y1="620.5" x2="1894" y2="620.5" stroke="#5DF499" stroke-width="3"/>
</g>
<defs>
<clipPath id="clip0_62_3">
<rect width="1920" height="668" fill="white"/>
</clipPath>
</defs>
</svg>
